<svg id="Layer_1" data-name="Layer 1" xmlns="http://www.w3.org/2000/svg" viewBox="0 0 241.88 75.41"><defs><style>.cls-1{fill:#fff;}</style></defs><title>Artboard 1</title><path class="cls-1" d="M210.63,44.1a1.47,1.47,0,0,0-2.26.92c-.7,2-5,8.13-10.69,8.13S187.86,48,187.86,44c0-3.12,5.73-5.18,9.66-5.77s11.69-.82,11.69-4.48-4.34-9.54-14.08-9.54a18.44,18.44,0,0,0-4.87.67h0a23.25,23.25,0,0,1-4,.6l-5.74-.15c-1,0-1.9,0-1.9.82s.52,1,1.37,1.18,1.4,1.38.5,3.69l-6.88,17.28-9.31-19.57c-.51-1,.27-1.16,1-1.34s.83-.7.83-1.24-.9-.58-1.9-.58h-9c-1.64,0-2,.34-2,.89a1.28,1.28,0,0,0,.26.78c-2.42-1.75-6.39-2.73-12.71-2.73-6.89,0-13.58,4.2-15.12,6.83a6.24,6.24,0,0,0-.73,1.68c-1.33-5.82-4.87-8.5-10.11-8.5-6,0-8.51,2.57-11,6.11,0-3.13,0-5.54,0-6.13,0-2.05-.05-6,.61-7.55,1.38-3.13-1.84-1.83-5.78,0-3,1.44-5.37,2.9-6.21,3.14s-1.18,1,0,1.77a4.9,4.9,0,0,1,2.09,3.93v7.24c-.69-3.64-5.07-8.55-14-8.55-5.86,0-12.6,3-15.55,9.42-1.27-6.46-5.22-9.42-10.73-9.42-6,0-8.67,2.58-11.18,6.13,0-3.13,0-5.54,0-6.13,0-2.05-.05-6,.61-7.55,1.38-3.13-1.84-1.83-5.78,0-3,1.44-5.37,2.9-6.21,3.14s-1.18,1,0,1.77a4.9,4.9,0,0,1,2.09,3.93V49.07c0,2.25.12,3.67-1.47,5.27s.2,3.06,1.59,2.53c0,0,5.51-1.39,7.18-2,1.14-.42,1.22-1.76,1.63-2.72,1.37,2,4.61,4.83,10.5,4.83s9.6-4.22,11.23-10.25C67.18,53.57,75,57,81.59,57c6.14,0,10.1-3.87,12.93-7.93h0c0,2.25.11,4.55-.94,5-.87.34-1.33,1.64.58,1.64h9.53c1.64,0,1.9-.9.89-1.47-.85-.48-.83-2.49-.83-5.15V46.56c0-2.64,0-6.27,0-9.83h0c0-2.39,2.72-7.93,6.73-7.93s5.71,4.45,5.71,11c0,5.48-.55,6.93-.55,9.88,0,4.21.17,4.23,3.58,5.76,4.84,2.17,5,2.08,6,2.39s3.56.26,1.87-1.52S125,52.26,125,49.52c1.67,5.47,9.2,7.47,12.2,7.47,4.72,0,10.09-2.87,10.54-6.14v.5c0,4.17,2.23,4.3,3.56,4.3h6.78c3.08,0,2.6-1.46,1.35-1.84a4.37,4.37,0,0,1-2.5-3.38V35.68a16.76,16.76,0,0,0-.27-3.18l11.22,22.7a.86.86,0,0,0,.76.46h3.95a.86.86,0,0,0,.79-.52l4.89-11.51c1.5,8.71,10.48,13,17.91,13,7.84,0,12.4-6.66,14.17-9.8C211.11,45.48,211.07,44.54,210.63,44.1ZM49.44,52.51c-5.19,0-6.32-5.36-6.4-7.82s0-5.19,0-8v0c0-2.39,2.92-7.93,6.93-7.93s6.19,4.45,6.19,11S54.84,52.51,49.44,52.51ZM72.87,40.42c-.41-1.92,0-12.78,5.89-12.78,3.9,0,7.47,3.59,7.47,6.63C86.24,36.58,74.82,37.78,72.87,40.42Zm21.64.5c0,6.14-5.69,12.55-11.42,12.55s-9.83-5.18-9.83-9.17c0-3.12,5.73-5.18,9.66-5.77,3.68-.55,10.68-.79,11.59-3.8v6.13S94.52,40.9,94.52,40.92Zm30.64,3.63c.14-2.85.31-5.69.31-5.69a29.28,29.28,0,0,0-.29-4.26,4,4,0,0,0,2.5,1.08c8.47,1.36,6,.27,6.37-4.38.06-.71.24-4,5.77-4s7.87,3.22,7.87,6.21c0,2.44-5.63,5.78-10.15,6C133.69,39.64,127,39.95,125.16,44.55ZM139.64,53c-3.2,0-5.7-1.58-5.7-6.08s4.23-4.73,8-5.66a14.62,14.62,0,0,0,5.81-3.4c0,1.75,0,3.87,0,6.46A8.3,8.3,0,0,1,139.64,53ZM187.46,40.1c-.41-1.92,0-12.78,5.89-12.78,3.9,0,7.47,3.59,7.47,6.63C200.82,36.26,189.41,37.45,187.46,40.1Z"/><path class="cls-1" d="M188.56,22.86l11.91-3.76a1.91,1.91,0,0,0,1.18-2.59,18.36,18.36,0,0,0-.93-2.11,2.27,2.27,0,0,0-3.3-.5c-2.63,1.88-9.6,5.87-9.6,5.87-1.44.94-1.15,1.76-.81,2.42A1.22,1.22,0,0,0,188.56,22.86Z"/></svg>